{
	"asset":{
		"generator":"Khronos glTF Blender I/O v4.4.56",
		"version":"2.0"
	},
	"extensionsUsed":[
		"KHR_materials_specular",
		"KHR_materials_ior"
	],
	"scene":0,
	"scenes":[
		{
			"name":"Scene",
			"nodes":[
				0,
				1,
				2,
				3,
				4,
				5,
				6,
				7,
				8,
				9,
				10
			]
		}
	],
	"nodes":[
		{
			"mesh":0,
			"name":"0_geometry.008",
			"rotation":[
				0.7071068286895752,
				0,
				0,
				0.7071068286895752
			]
		},
		{
			"mesh":1,
			"name":"10_geometry.004",
			"rotation":[
				0.7071068286895752,
				0,
				0,
				0.7071068286895752
			]
		},
		{
			"mesh":2,
			"name":"11_geometry.002",
			"rotation":[
				0.7071068286895752,
				0,
				0,
				0.7071068286895752
			]
		},
		{
			"mesh":3,
			"name":"1_geometry.014",
			"rotation":[
				0.7071068286895752,
				0,
				0,
				0.7071068286895752
			]
		},
		{
			"mesh":4,
			"name":"2_geometry.003",
			"rotation":[
				0.7071068286895752,
				0,
				0,
				0.7071068286895752
			]
		},
		{
			"mesh":5,
			"name":"3_geometry.007",
			"rotation":[
				0.7071068286895752,
				0,
				0,
				0.7071068286895752
			]
		},
		{
			"mesh":6,
			"name":"4_geometry.005",
			"rotation":[
				0.7071068286895752,
				0,
				0,
				0.7071068286895752
			]
		},
		{
			"mesh":7,
			"name":"6_geometry.001",
			"rotation":[
				0.7071068286895752,
				0,
				0,
				0.7071068286895752
			]
		},
		{
			"mesh":8,
			"name":"7_geometry.010",
			"rotation":[
				0.7071068286895752,
				0,
				0,
				0.7071068286895752
			]
		},
		{
			"mesh":9,
			"name":"8_geometry.006",
			"rotation":[
				0.7071068286895752,
				0,
				0,
				0.7071068286895752
			]
		},
		{
			"mesh":10,
			"name":"9_geometry.017",
			"rotation":[
				0.7071068286895752,
				0,
				0,
				0.7071068286895752
			]
		}
	],
	"animations":[
		{
			"channels":[
				{
					"sampler":0,
					"target":{
						"node":9,
						"path":"translation"
					}
				},
				{
					"sampler":1,
					"target":{
						"node":9,
						"path":"rotation"
					}
				},
				{
					"sampler":2,
					"target":{
						"node":9,
						"path":"scale"
					}
				}
			],
			"name":"8_geometry.006Action",
			"samplers":[
				{
					"input":44,
					"interpolation":"LINEAR",
					"output":45
				},
				{
					"input":44,
					"interpolation":"LINEAR",
					"output":46
				},
				{
					"input":44,
					"interpolation":"LINEAR",
					"output":47
				}
			]
		}
	],
	"materials":[
		{
			"doubleSided":true,
			"extensions":{
				"KHR_materials_specular":{
					"specularFactor":0
				},
				"KHR_materials_ior":{
					"ior":1.4500000476837158
				}
			},
			"name":"0",
			"pbrMetallicRoughness":{
				"baseColorTexture":{
					"index":0
				},
				"metallicFactor":0,
				"roughnessFactor":0.5
			}
		},
		{
			"doubleSided":true,
			"extensions":{
				"KHR_materials_specular":{
					"specularFactor":0
				},
				"KHR_materials_ior":{
					"ior":1.4500000476837158
				}
			},
			"name":"10",
			"pbrMetallicRoughness":{
				"baseColorTexture":{
					"index":1
				},
				"metallicFactor":0,
				"roughnessFactor":0.5
			}
		},
		{
			"alphaMode":"BLEND",
			"doubleSided":true,
			"extensions":{
				"KHR_materials_specular":{
					"specularFactor":0
				},
				"KHR_materials_ior":{
					"ior":1.4500000476837158
				}
			},
			"name":"11",
			"pbrMetallicRoughness":{
				"baseColorTexture":{
					"index":2
				},
				"metallicFactor":0,
				"roughnessFactor":0.5
			}
		},
		{
			"doubleSided":true,
			"extensions":{
				"KHR_materials_specular":{
					"specularFactor":0
				},
				"KHR_materials_ior":{
					"ior":1.4500000476837158
				}
			},
			"name":"1",
			"pbrMetallicRoughness":{
				"baseColorTexture":{
					"index":3
				},
				"metallicFactor":0,
				"roughnessFactor":0.5
			}
		},
		{
			"doubleSided":true,
			"extensions":{
				"KHR_materials_specular":{
					"specularFactor":0
				},
				"KHR_materials_ior":{
					"ior":1.4500000476837158
				}
			},
			"name":"2",
			"pbrMetallicRoughness":{
				"baseColorTexture":{
					"index":4
				},
				"metallicFactor":0,
				"roughnessFactor":0.5
			}
		},
		{
			"doubleSided":true,
			"extensions":{
				"KHR_materials_specular":{
					"specularFactor":0
				},
				"KHR_materials_ior":{
					"ior":1.4500000476837158
				}
			},
			"name":"3",
			"pbrMetallicRoughness":{
				"baseColorTexture":{
					"index":5
				},
				"metallicFactor":0,
				"roughnessFactor":0.5
			}
		},
		{
			"doubleSided":true,
			"extensions":{
				"KHR_materials_specular":{
					"specularFactor":0
				},
				"KHR_materials_ior":{
					"ior":1.4500000476837158
				}
			},
			"name":"4",
			"pbrMetallicRoughness":{
				"baseColorTexture":{
					"index":6
				},
				"metallicFactor":0,
				"roughnessFactor":0.5
			}
		},
		{
			"doubleSided":true,
			"extensions":{
				"KHR_materials_specular":{
					"specularFactor":0
				},
				"KHR_materials_ior":{
					"ior":1.4500000476837158
				}
			},
			"name":"6",
			"pbrMetallicRoughness":{
				"baseColorTexture":{
					"index":7
				},
				"metallicFactor":0,
				"roughnessFactor":0.5
			}
		},
		{
			"doubleSided":true,
			"extensions":{
				"KHR_materials_specular":{
					"specularFactor":0
				},
				"KHR_materials_ior":{
					"ior":1.4500000476837158
				}
			},
			"name":"7",
			"pbrMetallicRoughness":{
				"baseColorTexture":{
					"index":8
				},
				"metallicFactor":0,
				"roughnessFactor":0.5
			}
		},
		{
			"doubleSided":true,
			"extensions":{
				"KHR_materials_specular":{
					"specularFactor":0
				},
				"KHR_materials_ior":{
					"ior":1.4500000476837158
				}
			},
			"name":"8",
			"pbrMetallicRoughness":{
				"baseColorTexture":{
					"index":9
				},
				"metallicFactor":0,
				"roughnessFactor":0.5
			}
		},
		{
			"doubleSided":true,
			"extensions":{
				"KHR_materials_specular":{
					"specularFactor":0
				},
				"KHR_materials_ior":{
					"ior":1.4500000476837158
				}
			},
			"name":"9",
			"pbrMetallicRoughness":{
				"baseColorTexture":{
					"index":10
				},
				"metallicFactor":0,
				"roughnessFactor":0.5
			}
		}
	],
	"meshes":[
		{
			"name":"0_geometry.008",
			"primitives":[
				{
					"attributes":{
						"POSITION":0,
						"NORMAL":1,
						"TEXCOORD_0":2
					},
					"indices":3,
					"material":0
				}
			]
		},
		{
			"name":"10_geometry.004",
			"primitives":[
				{
					"attributes":{
						"POSITION":4,
						"NORMAL":5,
						"TEXCOORD_0":6
					},
					"indices":7,
					"material":1
				}
			]
		},
		{
			"name":"11_geometry.002",
			"primitives":[
				{
					"attributes":{
						"POSITION":8,
						"NORMAL":9,
						"TEXCOORD_0":10
					},
					"indices":11,
					"material":2
				}
			]
		},
		{
			"name":"1_geometry.014",
			"primitives":[
				{
					"attributes":{
						"POSITION":12,
						"NORMAL":13,
						"TEXCOORD_0":14
					},
					"indices":15,
					"material":3
				}
			]
		},
		{
			"name":"2_geometry.003",
			"primitives":[
				{
					"attributes":{
						"POSITION":16,
						"NORMAL":17,
						"TEXCOORD_0":18
					},
					"indices":19,
					"material":4
				}
			]
		},
		{
			"name":"3_geometry.007",
			"primitives":[
				{
					"attributes":{
						"POSITION":20,
						"NORMAL":21,
						"TEXCOORD_0":22
					},
					"indices":23,
					"material":5
				}
			]
		},
		{
			"name":"4_geometry.005",
			"primitives":[
				{
					"attributes":{
						"POSITION":24,
						"NORMAL":25,
						"TEXCOORD_0":26
					},
					"indices":27,
					"material":6
				}
			]
		},
		{
			"name":"6_geometry.001",
			"primitives":[
				{
					"attributes":{
						"POSITION":28,
						"NORMAL":29,
						"TEXCOORD_0":30
					},
					"indices":31,
					"material":7
				}
			]
		},
		{
			"name":"7_geometry.010",
			"primitives":[
				{
					"attributes":{
						"POSITION":32,
						"NORMAL":33,
						"TEXCOORD_0":34
					},
					"indices":35,
					"material":8
				}
			]
		},
		{
			"name":"8_geometry.006",
			"primitives":[
				{
					"attributes":{
						"POSITION":36,
						"NORMAL":37,
						"TEXCOORD_0":38
					},
					"indices":39,
					"material":9
				}
			]
		},
		{
			"name":"9_geometry.017",
			"primitives":[
				{
					"attributes":{
						"POSITION":40,
						"NORMAL":41,
						"TEXCOORD_0":42
					},
					"indices":43,
					"material":10
				}
			]
		}
	],
	"textures":[
		{
			"sampler":0,
			"source":0
		},
		{
			"sampler":0,
			"source":1
		},
		{
			"sampler":0,
			"source":2
		},
		{
			"sampler":0,
			"source":3
		},
		{
			"sampler":0,
			"source":4
		},
		{
			"sampler":0,
			"source":5
		},
		{
			"sampler":0,
			"source":6
		},
		{
			"sampler":0,
			"source":7
		},
		{
			"sampler":0,
			"source":8
		},
		{
			"sampler":0,
			"source":9
		},
		{
			"sampler":0,
			"source":10
		}
	],
	"images":[
		{
			"mimeType":"image/png",
			"name":"0",
			"uri":"0.png"
		},
		{
			"mimeType":"image/png",
			"name":"10",
			"uri":"10.png"
		},
		{
			"mimeType":"image/png",
			"name":"11",
			"uri":"11.png"
		},
		{
			"mimeType":"image/png",
			"name":"1",
			"uri":"1.png"
		},
		{
			"mimeType":"image/png",
			"name":"2",
			"uri":"2.png"
		},
		{
			"mimeType":"image/png",
			"name":"3",
			"uri":"3.png"
		},
		{
			"mimeType":"image/png",
			"name":"4",
			"uri":"4.png"
		},
		{
			"mimeType":"image/png",
			"name":"6",
			"uri":"6.png"
		},
		{
			"mimeType":"image/png",
			"name":"7",
			"uri":"7.png"
		},
		{
			"mimeType":"image/png",
			"name":"8",
			"uri":"8.png"
		},
		{
			"mimeType":"image/png",
			"name":"9",
			"uri":"9.png"
		}
	],
	"accessors":[
		{
			"bufferView":0,
			"componentType":5126,
			"count":238,
			"max":[
				1.2819830179214478,
				4.161946773529053,
				5.383930206298828
			],
			"min":[
				-2.8739631175994873,
				-4.159945964813232,
				-6.6359148025512695
			],
			"type":"VEC3"
		},
		{
			"bufferView":1,
			"componentType":5126,
			"count":238,
			"type":"VEC3"
		},
		{
			"bufferView":2,
			"componentType":5126,
			"count":238,
			"type":"VEC2"
		},
		{
			"bufferView":3,
			"componentType":5123,
			"count":252,
			"type":"SCALAR"
		},
		{
			"bufferView":4,
			"componentType":5126,
			"count":465,
			"max":[
				4.161945819854736,
				4.161946773529053,
				8.311893463134766
			],
			"min":[
				-4.159945964813232,
				-4.159945964813232,
				-12.021844863891602
			],
			"type":"VEC3"
		},
		{
			"bufferView":5,
			"componentType":5126,
			"count":465,
			"type":"VEC3"
		},
		{
			"bufferView":6,
			"componentType":5126,
			"count":465,
			"type":"VEC2"
		},
		{
			"bufferView":7,
			"componentType":5123,
			"count":492,
			"type":"SCALAR"
		},
		{
			"bufferView":8,
			"componentType":5126,
			"count":712,
			"max":[
				4.995934963226318,
				4.995934009552002,
				10.729862213134766
			],
			"min":[
				-4.159945964813232,
				-4.183946132659912,
				-14.101818084716797
			],
			"type":"VEC3"
		},
		{
			"bufferView":9,
			"componentType":5126,
			"count":712,
			"type":"VEC3"
		},
		{
			"bufferView":10,
			"componentType":5126,
			"count":712,
			"type":"VEC2"
		},
		{
			"bufferView":11,
			"componentType":5123,
			"count":714,
			"type":"SCALAR"
		},
		{
			"bufferView":12,
			"componentType":5126,
			"count":69,
			"max":[
				4.415943145751953,
				4.415942192077637,
				-10.567863464355469
			],
			"min":[
				3.257957935333252,
				3.2579569816589355,
				-12.381840705871582
			],
			"type":"VEC3"
		},
		{
			"bufferView":13,
			"componentType":5126,
			"count":69,
			"type":"VEC3"
		},
		{
			"bufferView":14,
			"componentType":5126,
			"count":69,
			"type":"VEC2"
		},
		{
			"bufferView":15,
			"componentType":5123,
			"count":72,
			"type":"SCALAR"
		},
		{
			"bufferView":16,
			"componentType":5126,
			"count":361,
			"max":[
				6.601914882659912,
				6.601913928985596,
				9.643876075744629
			],
			"min":[
				-4.159945964813232,
				-4.159945964813232,
				-16.3837890625
			],
			"type":"VEC3"
		},
		{
			"bufferView":17,
			"componentType":5126,
			"count":361,
			"type":"VEC3"
		},
		{
			"bufferView":18,
			"componentType":5126,
			"count":361,
			"type":"VEC2"
		},
		{
			"bufferView":19,
			"componentType":5123,
			"count":375,
			"type":"SCALAR"
		},
		{
			"bufferView":20,
			"componentType":5126,
			"count":150,
			"max":[
				5.731925010681152,
				5.731925010681152,
				6.981910228729248
			],
			"min":[
				-4.159945964813232,
				-4.159945964813232,
				-12.381840705871582
			],
			"type":"VEC3"
		},
		{
			"bufferView":21,
			"componentType":5126,
			"count":150,
			"type":"VEC3"
		},
		{
			"bufferView":22,
			"componentType":5126,
			"count":150,
			"type":"VEC2"
		},
		{
			"bufferView":23,
			"componentType":5123,
			"count":150,
			"type":"SCALAR"
		},
		{
			"bufferView":24,
			"componentType":5126,
			"count":448,
			"max":[
				4.161945819854736,
				4.161946773529053,
				8.311893463134766
			],
			"min":[
				-4.159945964813232,
				-3.86995005607605,
				-12.021844863891602
			],
			"type":"VEC3"
		},
		{
			"bufferView":25,
			"componentType":5126,
			"count":448,
			"type":"VEC3"
		},
		{
			"bufferView":26,
			"componentType":5126,
			"count":448,
			"type":"VEC2"
		},
		{
			"bufferView":27,
			"componentType":5123,
			"count":498,
			"type":"SCALAR"
		},
		{
			"bufferView":28,
			"componentType":5126,
			"count":294,
			"max":[
				6.601914882659912,
				6.601913928985596,
				17.40577507019043
			],
			"min":[
				-4.159945964813232,
				-4.159946918487549,
				-14.949808120727539
			],
			"type":"VEC3"
		},
		{
			"bufferView":29,
			"componentType":5126,
			"count":294,
			"type":"VEC3"
		},
		{
			"bufferView":30,
			"componentType":5126,
			"count":294,
			"type":"VEC2"
		},
		{
			"bufferView":31,
			"componentType":5123,
			"count":294,
			"type":"SCALAR"
		},
		{
			"bufferView":32,
			"componentType":5126,
			"count":308,
			"max":[
				4.161945819854736,
				4.16194486618042,
				5.301931858062744
			],
			"min":[
				-4.159945964813232,
				-4.159946918487549,
				-16.3837890625
			],
			"type":"VEC3"
		},
		{
			"bufferView":33,
			"componentType":5126,
			"count":308,
			"type":"VEC3"
		},
		{
			"bufferView":34,
			"componentType":5126,
			"count":308,
			"type":"VEC2"
		},
		{
			"bufferView":35,
			"componentType":5123,
			"count":312,
			"type":"SCALAR"
		},
		{
			"bufferView":36,
			"componentType":5126,
			"count":219,
			"max":[
				4.161945819854736,
				3.363956928253174,
				7.339906215667725
			],
			"min":[
				-4.159945964813232,
				-4.159945964813232,
				-5.355930805206299
			],
			"type":"VEC3"
		},
		{
			"bufferView":37,
			"componentType":5126,
			"count":219,
			"type":"VEC3"
		},
		{
			"bufferView":38,
			"componentType":5126,
			"count":219,
			"type":"VEC2"
		},
		{
			"bufferView":39,
			"componentType":5123,
			"count":258,
			"type":"SCALAR"
		},
		{
			"bufferView":40,
			"componentType":5126,
			"count":48,
			"max":[
				6.601914882659912,
				6.601913928985596,
				9.643876075744629
			],
			"min":[
				-4.159945964813232,
				-4.159945011138916,
				-11.837848663330078
			],
			"type":"VEC3"
		},
		{
			"bufferView":41,
			"componentType":5126,
			"count":48,
			"type":"VEC3"
		},
		{
			"bufferView":42,
			"componentType":5126,
			"count":48,
			"type":"VEC2"
		},
		{
			"bufferView":43,
			"componentType":5123,
			"count":48,
			"type":"SCALAR"
		},
		{
			"bufferView":44,
			"componentType":5126,
			"count":1,
			"max":[
				0.041666666666666664
			],
			"min":[
				0.041666666666666664
			],
			"type":"SCALAR"
		},
		{
			"bufferView":45,
			"componentType":5126,
			"count":1,
			"type":"VEC3"
		},
		{
			"bufferView":46,
			"componentType":5126,
			"count":1,
			"type":"VEC4"
		},
		{
			"bufferView":47,
			"componentType":5126,
			"count":1,
			"type":"VEC3"
		}
	],
	"bufferViews":[
		{
			"buffer":0,
			"byteLength":2856,
			"byteOffset":0,
			"target":34962
		},
		{
			"buffer":0,
			"byteLength":2856,
			"byteOffset":2856,
			"target":34962
		},
		{
			"buffer":0,
			"byteLength":1904,
			"byteOffset":5712,
			"target":34962
		},
		{
			"buffer":0,
			"byteLength":504,
			"byteOffset":7616,
			"target":34963
		},
		{
			"buffer":0,
			"byteLength":5580,
			"byteOffset":8120,
			"target":34962
		},
		{
			"buffer":0,
			"byteLength":5580,
			"byteOffset":13700,
			"target":34962
		},
		{
			"buffer":0,
			"byteLength":3720,
			"byteOffset":19280,
			"target":34962
		},
		{
			"buffer":0,
			"byteLength":984,
			"byteOffset":23000,
			"target":34963
		},
		{
			"buffer":0,
			"byteLength":8544,
			"byteOffset":23984,
			"target":34962
		},
		{
			"buffer":0,
			"byteLength":8544,
			"byteOffset":32528,
			"target":34962
		},
		{
			"buffer":0,
			"byteLength":5696,
			"byteOffset":41072,
			"target":34962
		},
		{
			"buffer":0,
			"byteLength":1428,
			"byteOffset":46768,
			"target":34963
		},
		{
			"buffer":0,
			"byteLength":828,
			"byteOffset":48196,
			"target":34962
		},
		{
			"buffer":0,
			"byteLength":828,
			"byteOffset":49024,
			"target":34962
		},
		{
			"buffer":0,
			"byteLength":552,
			"byteOffset":49852,
			"target":34962
		},
		{
			"buffer":0,
			"byteLength":144,
			"byteOffset":50404,
			"target":34963
		},
		{
			"buffer":0,
			"byteLength":4332,
			"byteOffset":50548,
			"target":34962
		},
		{
			"buffer":0,
			"byteLength":4332,
			"byteOffset":54880,
			"target":34962
		},
		{
			"buffer":0,
			"byteLength":2888,
			"byteOffset":59212,
			"target":34962
		},
		{
			"buffer":0,
			"byteLength":750,
			"byteOffset":62100,
			"target":34963
		},
		{
			"buffer":0,
			"byteLength":1800,
			"byteOffset":62852,
			"target":34962
		},
		{
			"buffer":0,
			"byteLength":1800,
			"byteOffset":64652,
			"target":34962
		},
		{
			"buffer":0,
			"byteLength":1200,
			"byteOffset":66452,
			"target":34962
		},
		{
			"buffer":0,
			"byteLength":300,
			"byteOffset":67652,
			"target":34963
		},
		{
			"buffer":0,
			"byteLength":5376,
			"byteOffset":67952,
			"target":34962
		},
		{
			"buffer":0,
			"byteLength":5376,
			"byteOffset":73328,
			"target":34962
		},
		{
			"buffer":0,
			"byteLength":3584,
			"byteOffset":78704,
			"target":34962
		},
		{
			"buffer":0,
			"byteLength":996,
			"byteOffset":82288,
			"target":34963
		},
		{
			"buffer":0,
			"byteLength":3528,
			"byteOffset":83284,
			"target":34962
		},
		{
			"buffer":0,
			"byteLength":3528,
			"byteOffset":86812,
			"target":34962
		},
		{
			"buffer":0,
			"byteLength":2352,
			"byteOffset":90340,
			"target":34962
		},
		{
			"buffer":0,
			"byteLength":588,
			"byteOffset":92692,
			"target":34963
		},
		{
			"buffer":0,
			"byteLength":3696,
			"byteOffset":93280,
			"target":34962
		},
		{
			"buffer":0,
			"byteLength":3696,
			"byteOffset":96976,
			"target":34962
		},
		{
			"buffer":0,
			"byteLength":2464,
			"byteOffset":100672,
			"target":34962
		},
		{
			"buffer":0,
			"byteLength":624,
			"byteOffset":103136,
			"target":34963
		},
		{
			"buffer":0,
			"byteLength":2628,
			"byteOffset":103760,
			"target":34962
		},
		{
			"buffer":0,
			"byteLength":2628,
			"byteOffset":106388,
			"target":34962
		},
		{
			"buffer":0,
			"byteLength":1752,
			"byteOffset":109016,
			"target":34962
		},
		{
			"buffer":0,
			"byteLength":516,
			"byteOffset":110768,
			"target":34963
		},
		{
			"buffer":0,
			"byteLength":576,
			"byteOffset":111284,
			"target":34962
		},
		{
			"buffer":0,
			"byteLength":576,
			"byteOffset":111860,
			"target":34962
		},
		{
			"buffer":0,
			"byteLength":384,
			"byteOffset":112436,
			"target":34962
		},
		{
			"buffer":0,
			"byteLength":96,
			"byteOffset":112820,
			"target":34963
		},
		{
			"buffer":0,
			"byteLength":4,
			"byteOffset":112916
		},
		{
			"buffer":0,
			"byteLength":12,
			"byteOffset":112920
		},
		{
			"buffer":0,
			"byteLength":16,
			"byteOffset":112932
		},
		{
			"buffer":0,
			"byteLength":12,
			"byteOffset":112948
		}
	],
	"samplers":[
		{
			"magFilter":9729,
			"minFilter":9987
		}
	],
	"buffers":[
		{
			"byteLength":112960,
			"uri":"TickTok.bin"
		}
	]
}
