{
	"asset":{
		"generator":"Khronos glTF Blender I/O v4.4.56",
		"version":"2.0"
	},
	"extensionsUsed":[
		"KHR_materials_specular"
	],
	"scene":0,
	"scenes":[
		{
			"name":"Scene",
			"nodes":[
				4
			]
		}
	],
	"nodes":[
		{
			"mesh":0,
			"name":"BladeSmear2",
			"rotation":[
				0,
				-0.8387815356254578,
				0,
				0.5444682836532593
			],
			"scale":[
				2.7209062576293945,
				2.7209062576293945,
				2.7209062576293945
			]
		},
		{
			"mesh":1,
			"name":"Circle",
			"rotation":[
				0,
				-0.8387815356254578,
				0,
				0.5444682836532593
			],
			"scale":[
				2.7209062576293945,
				2.7209062576293945,
				2.7209062576293945
			]
		},
		{
			"mesh":2,
			"name":"HandleSmear",
			"rotation":[
				0,
				-0.007106635253876448,
				0,
				0.9999748468399048
			],
			"scale":[
				2.75532603263855,
				2.755326271057129,
				2.75532603263855
			]
		},
		{
			"mesh":3,
			"name":"HandleSmear1"
		},
		{
			"children":[
				0,
				1,
				2,
				3
			],
			"name":"Pivot"
		}
	],
	"animations":[
		{
			"channels":[
				{
					"sampler":0,
					"target":{
						"node":4,
						"path":"translation"
					}
				},
				{
					"sampler":1,
					"target":{
						"node":4,
						"path":"rotation"
					}
				},
				{
					"sampler":2,
					"target":{
						"node":4,
						"path":"scale"
					}
				}
			],
			"name":"Spinning",
			"samplers":[
				{
					"input":16,
					"interpolation":"STEP",
					"output":17
				},
				{
					"input":18,
					"interpolation":"LINEAR",
					"output":19
				},
				{
					"input":16,
					"interpolation":"STEP",
					"output":20
				}
			]
		}
	],
	"materials":[
		{
			"doubleSided":true,
			"emissiveFactor":[
				1,
				1,
				1
			],
			"name":"Material.001",
			"pbrMetallicRoughness":{
				"baseColorFactor":[
					0,
					0,
					0,
					1
				]
			}
		},
		{
			"doubleSided":true,
			"emissiveFactor":[
				1,
				1,
				1
			],
			"name":"Material.004",
			"pbrMetallicRoughness":{
				"baseColorFactor":[
					0,
					0,
					0,
					1
				]
			}
		},
		{
			"doubleSided":true,
			"extensions":{
				"KHR_materials_specular":{
					"specularFactor":0
				}
			},
			"name":"m_adbdec4b-7ee9-7d12-4255-53e2663fb09b.001",
			"pbrMetallicRoughness":{
				"baseColorTexture":{
					"index":0
				},
				"metallicFactor":0
			}
		}
	],
	"meshes":[
		{
			"name":"Circle.002",
			"primitives":[
				{
					"attributes":{
						"POSITION":0,
						"NORMAL":1,
						"TEXCOORD_0":2
					},
					"indices":3,
					"material":0
				}
			]
		},
		{
			"name":"Circle.001",
			"primitives":[
				{
					"attributes":{
						"POSITION":4,
						"NORMAL":5,
						"TEXCOORD_0":6
					},
					"indices":7,
					"material":0
				}
			]
		},
		{
			"name":"Circle",
			"primitives":[
				{
					"attributes":{
						"POSITION":8,
						"NORMAL":9,
						"TEXCOORD_0":10
					},
					"indices":11,
					"material":1
				}
			]
		},
		{
			"name":"EarR.002",
			"primitives":[
				{
					"attributes":{
						"POSITION":12,
						"NORMAL":13,
						"TEXCOORD_0":14
					},
					"indices":15,
					"material":2
				}
			]
		}
	],
	"textures":[
		{
			"sampler":0,
			"source":0
		}
	],
	"images":[
		{
			"mimeType":"image/png",
			"name":"SwordTex",
			"uri":"SwordTex.png"
		}
	],
	"accessors":[
		{
			"bufferView":0,
			"componentType":5126,
			"count":88,
			"max":[
				0.8731002807617188,
				0.1348857879638672,
				0.5392286777496338
			],
			"min":[
				0.19847318530082703,
				0.00793980062007904,
				-0.4490099549293518
			],
			"type":"VEC3"
		},
		{
			"bufferView":1,
			"componentType":5126,
			"count":88,
			"type":"VEC3"
		},
		{
			"bufferView":2,
			"componentType":5126,
			"count":88,
			"type":"VEC2"
		},
		{
			"bufferView":3,
			"componentType":5123,
			"count":132,
			"type":"SCALAR"
		},
		{
			"bufferView":4,
			"componentType":5126,
			"count":88,
			"max":[
				1.1601777076721191,
				0.03333310782909393,
				1.064906358718872
			],
			"min":[
				-0.23753754794597626,
				-0.035941705107688904,
				-0.21950361132621765
			],
			"type":"VEC3"
		},
		{
			"bufferView":5,
			"componentType":5126,
			"count":88,
			"type":"VEC3"
		},
		{
			"bufferView":6,
			"componentType":5126,
			"count":88,
			"type":"VEC2"
		},
		{
			"bufferView":7,
			"componentType":5123,
			"count":132,
			"type":"SCALAR"
		},
		{
			"bufferView":8,
			"componentType":5126,
			"count":68,
			"max":[
				0.948625922203064,
				0.023107077926397324,
				-0.18689146637916565
			],
			"min":[
				-0.01392364501953125,
				-0.08288385719060898,
				-1.047440528869629
			],
			"type":"VEC3"
		},
		{
			"bufferView":9,
			"componentType":5126,
			"count":68,
			"type":"VEC3"
		},
		{
			"bufferView":10,
			"componentType":5126,
			"count":68,
			"type":"VEC2"
		},
		{
			"bufferView":11,
			"componentType":5123,
			"count":102,
			"type":"SCALAR"
		},
		{
			"bufferView":12,
			"componentType":5126,
			"count":324,
			"max":[
				0.9363130331039429,
				0.28807997703552246,
				3.3884568214416504
			],
			"min":[
				-0.9373970031738281,
				-0.2880800664424896,
				-3.3965606689453125
			],
			"type":"VEC3"
		},
		{
			"bufferView":13,
			"componentType":5126,
			"count":324,
			"type":"VEC3"
		},
		{
			"bufferView":14,
			"componentType":5126,
			"count":324,
			"type":"VEC2"
		},
		{
			"bufferView":15,
			"componentType":5123,
			"count":786,
			"type":"SCALAR"
		},
		{
			"bufferView":16,
			"componentType":5126,
			"count":2,
			"max":[
				0.25
			],
			"min":[
				0.041666666666666664
			],
			"type":"SCALAR"
		},
		{
			"bufferView":17,
			"componentType":5126,
			"count":2,
			"type":"VEC3"
		},
		{
			"bufferView":18,
			"componentType":5126,
			"count":6,
			"max":[
				0.25
			],
			"min":[
				0.041666666666666664
			],
			"type":"SCALAR"
		},
		{
			"bufferView":19,
			"componentType":5126,
			"count":6,
			"type":"VEC4"
		},
		{
			"bufferView":20,
			"componentType":5126,
			"count":2,
			"type":"VEC3"
		}
	],
	"bufferViews":[
		{
			"buffer":0,
			"byteLength":1056,
			"byteOffset":0,
			"target":34962
		},
		{
			"buffer":0,
			"byteLength":1056,
			"byteOffset":1056,
			"target":34962
		},
		{
			"buffer":0,
			"byteLength":704,
			"byteOffset":2112,
			"target":34962
		},
		{
			"buffer":0,
			"byteLength":264,
			"byteOffset":2816,
			"target":34963
		},
		{
			"buffer":0,
			"byteLength":1056,
			"byteOffset":3080,
			"target":34962
		},
		{
			"buffer":0,
			"byteLength":1056,
			"byteOffset":4136,
			"target":34962
		},
		{
			"buffer":0,
			"byteLength":704,
			"byteOffset":5192,
			"target":34962
		},
		{
			"buffer":0,
			"byteLength":264,
			"byteOffset":5896,
			"target":34963
		},
		{
			"buffer":0,
			"byteLength":816,
			"byteOffset":6160,
			"target":34962
		},
		{
			"buffer":0,
			"byteLength":816,
			"byteOffset":6976,
			"target":34962
		},
		{
			"buffer":0,
			"byteLength":544,
			"byteOffset":7792,
			"target":34962
		},
		{
			"buffer":0,
			"byteLength":204,
			"byteOffset":8336,
			"target":34963
		},
		{
			"buffer":0,
			"byteLength":3888,
			"byteOffset":8540,
			"target":34962
		},
		{
			"buffer":0,
			"byteLength":3888,
			"byteOffset":12428,
			"target":34962
		},
		{
			"buffer":0,
			"byteLength":2592,
			"byteOffset":16316,
			"target":34962
		},
		{
			"buffer":0,
			"byteLength":1572,
			"byteOffset":18908,
			"target":34963
		},
		{
			"buffer":0,
			"byteLength":8,
			"byteOffset":20480
		},
		{
			"buffer":0,
			"byteLength":24,
			"byteOffset":20488
		},
		{
			"buffer":0,
			"byteLength":24,
			"byteOffset":20512
		},
		{
			"buffer":0,
			"byteLength":96,
			"byteOffset":20536
		},
		{
			"buffer":0,
			"byteLength":24,
			"byteOffset":20632
		}
	],
	"samplers":[
		{
			"magFilter":9728,
			"minFilter":9984
		}
	],
	"buffers":[
		{
			"byteLength":20656,
			"uri":"SmearSword.bin"
		}
	]
}
